<svg class="icon" viewBox="0 0 1024 1024" version="1.1" xmlns="http://www.w3.org/2000/svg"
     width="1em" height="1em">
    <path d="M257.48926 394.079704c2.301622-3.839477 3.839477-6.911748 4.608405-11.520153 0.765487-1.539575 0.765487-3.07227 0.765487-4.610125 9.21853-76.041265 37.637889-138.257314 83.72366-185.8775 56.838717-56.842157 124.430378-85.259795 204.31112-85.259795 64.526272 0 121.363269 18.43362 169.754103 54.535374 6.915188 5.373892 14.590703 6.913468 23.043746 6.14282 8.451323-1.536135 15.363071-5.377333 19.969755-12.289081 5.379053-6.913468 6.913468-14.592423 6.14454-22.273097-1.536135-8.451323-5.375613-15.363071-12.28908-20.742124-59.142059-44.549636-128.269856-66.824454-206.621344-66.824454-96.774787 0-178.964032 34.563898-248.093549 103.693415-55.306022 55.300861-89.100993 128.271576-100.621145 217.370849l-121.359828 214.300298c-3.839477 6.147981-5.379053 13.061448-3.839478 20.740403 1.534415 6.913468 4.608405 13.061448 10.752945 17.664693 5.377333 4.611845 12.2908 6.918628 19.202548 6.918628h86.028723v102.15384c3.07227 32.262276 13.056288 54.533654 30.724421 68.357149 16.126838 15.364791 39.170583 20.743844 69.127797 16.133719h36.098313v131.345566c0 8.451323 3.07399 16.130278 9.21853 22.274818 6.14282 5.377333 13.054568 8.447883 21.50245 8.447883 8.453043 0 16.131998-3.07055 22.274819-8.447883 5.379053-6.14454 8.451323-13.823495 8.451323-22.274818v-162.068267c0-8.451323-3.07227-16.133718-8.451323-21.507611-6.14282-6.147981-13.823495-9.21853-22.274819-9.21853h-74.501689c-9.21853 1.539575-16.131998 0.767207-21.509331-1.539575-4.610125-6.13938-7.680675-14.590703-9.21509-26.114296v-128.269856c0-8.447883-3.07399-15.363071-9.21853-21.507611-6.14282-6.14454-13.059728-9.21509-21.50417-9.21509H159.938664l97.550596-170.519589z"
          fill="currentColor"></path>
    <path d="M855.838799 268.880398c-49.925249-49.161482-109.839676-74.50857-179.73468-74.50857-69.900165 0-129.809431 24.581601-178.970913 74.50857-49.925249 49.158041-74.503409 109.067308-74.503409 178.965752 0 69.896724 24.57644 129.805991 74.503409 179.7364l2.305063 2.305063c2.303342 2.303342 4.610125 4.606685 6.911747 6.913467l1.539576 0.767208c25.343648 26.884943 39.170583 64.519392 42.244573 111.375811 0 1.536135 0.763767 3.07055 0.763767 4.606685-6.13938 1.539575-11.518432 3.841198-15.36135 8.451323-6.14282 6.14626-9.21509 13.059728-9.21509 21.50761 0 8.442722 3.07227 16.126838 9.21509 22.274818 5.380773 5.373892 13.058008 8.446162 21.511051 8.446163v26.119456c-8.453043 0-16.130278 3.836037-21.511051 9.21337-6.14282 6.14454-9.21509 13.061448-9.21509 21.50761 0 8.451323 3.07227 16.130278 9.21509 22.274819 5.380773 5.377333 13.058008 8.451323 21.511051 8.451323h18.4319v43.775548c0 4.610125 0 7.684116 1.539576 11.523593a32.253675 32.253675 0 0 0 9.211649 19.199107c6.151421 6.149701 13.063168 9.220251 21.509331 9.220251h133.652349c8.449603 0 15.36135-3.07055 21.505891-9.220251 6.14626-6.1411 9.21853-13.054568 9.21853-21.50073v-52.999239h31.495069c8.444442 0 15.35963-3.07399 21.50245-8.451323 6.1411-6.14454 9.21853-13.823495 9.21853-22.274818 0-8.446162-3.077431-15.363071-9.21853-21.50761-6.14282-5.377333-13.058008-9.21337-21.50245-9.21337h-4.613566v-26.119456h4.613566c8.444442 0 15.35963-3.07227 21.50245-8.446163 6.1411-6.147981 9.21853-13.832096 9.21853-22.274818 0-8.447883-3.077431-15.36135-9.21853-21.507611a32.251955 32.251955 0 0 0-19.200828-9.21509c0-1.539575 0-3.077431-0.768928-4.610125-5.375613-41.475646 9.21681-79.116975 43.015222-113.682594 2.301622-1.532695 4.606685-3.837757 6.908307-6.141099l0.772368-0.768928 0.767207-0.768928c49.158041-49.159762 72.974155-109.069028 72.974155-178.967472-0.00172-69.898445-24.590202-129.807711-73.743082-178.965752z m-179.73468-13.059728c52.999239 0 98.314362 19.204268 136.719458 56.838716 36.875842 36.872401 55.309462 82.187525 55.309463 135.185044s-18.435341 97.548875-54.538815 135.186764l-0.770648 0.767207-0.765487 0.763767c-1.537855 1.539575-3.841198 3.077431-5.373892 5.380773-36.872401 33.026043-79.884182 49.923529-130.578359 49.923529-49.156321 0-91.404335-15.35963-126.737161-47.625347l-1.536135-0.760327c-1.537855-2.310223-3.844638-3.841198-5.377333-5.380773-0.768928-0.767207-1.536135-1.539575-1.536135-1.539575-38.406816-38.401656-56.840437-83.72194-56.840437-136.719459s18.43362-98.314362 56.07151-135.185043h0.768927c36.865521-37.631008 82.187525-56.835276 135.185044-56.835276z m61.448842 584.527764h-119.056486v-26.119456h119.056486v26.119456z m3.07055-87.563138h-124.432099c-1.536135-2.306783-2.305063-4.610125-4.606685-6.14626v-1.536135c-1.539575-19.202548-3.842918-36.872401-7.684115-53.002679 23.045466 6.14626 46.851258 9.21681 72.203507 9.21681 24.578161 0 47.621906-3.07055 69.896724-8.446163-3.837757 17.668133-4.608405 36.098313-2.305062 56.071509-1.534415 0.765487-2.303342 2.303342-3.07227 3.842918z m-29.955494 171.286798h-73.736202v-22.274818h73.736202v22.274818z"
          fill="currentColor"></path>
    <path d="M564.730028 421.731854c-5.379053-6.911748-12.292521-9.987458-20.743843-10.752945-8.447883 0-16.126838 2.303342-22.273098 7.682395-6.911748 6.14282-9.982297 13.056288-10.751225 21.504171 0 8.451323 2.303342 15.363071 7.684115 22.274818l63.748744 71.43458c5.377333 6.913468 12.292521 9.985738 20.743844 10.752945 8.447883 0 16.128558-2.306783 22.273098-7.680675 6.911748-6.14626 9.982297-13.059728 10.751225-21.509331 0-8.446162-2.301622-15.364791-7.682396-21.504171l-63.750464-72.201787zM812.821857 410.978909c-8.447883 0.765487-15.363071 3.841198-21.50417 9.984018l-67.593382 71.432859c-6.14454 6.14626-9.21509 13.826936-8.447883 22.278259 0 8.444442 3.07399 15.36135 9.21509 21.50589 6.14454 5.377333 13.828656 8.447883 22.273098 8.447883 8.447883-0.767207 15.363071-3.839477 21.509331-9.218531l67.591662-72.201787c6.14626-6.1411 9.220251-13.823495 8.449603-22.273098 0-8.449603-3.07055-15.36135-9.218531-21.50933-6.14282-5.373892-13.823495-8.446162-22.274818-8.446163zM655.361995 354.136752c-6.913468 6.14626-9.21337 13.059728-9.213369 21.507611v152.080809c0 8.453043 2.301622 15.363071 9.213369 21.511051 5.382493 6.13938 13.058008 9.21337 21.511052 9.21337 8.444442 0 15.36135-3.07399 21.50589-9.21337 6.13938-6.147981 9.21681-13.058008 9.21681-21.511051v-152.080809c0-8.449603-3.077431-15.363071-9.21681-21.507611-6.14454-6.14454-13.061448-9.21509-21.50589-9.21509-8.453043 0-16.128558 3.07227-21.511052 9.21509z"
          fill="currentColor"></path>
</svg>