<svg class="icon" viewBox="0 0 1024 1024" version="1.1" xmlns="http://www.w3.org/2000/svg"
     width="1em" height="1em">
    <path d="M246.831528 145.66133a465.484799 465.484799 0 0 1 57.129619-28.41548 438.050636 438.050636 0 0 1 129.533626-32.639401l48.084451 54.356337-22.399589 56.276301a373.795814 373.795814 0 0 0-122.835081 47.359132l-8.319848 5.119906-7.594527-74.110641-73.598651-28.159484v0.21333z m-20.906283 13.226424l76.329267 29.43946 8.021186 72.958662a311.759618 311.759618 0 0 0-96.595562 116.477865 182.56732 182.56732 0 0 0-5.930558 12.799765l-53.759014-65.236137-87.635727 18.516994a441.762568 441.762568 0 0 1 88.019719-126.291018c21.97293-22.271592 45.652496-41.769901 71.12403-58.708257l0.426659 0.042666z m502.68945 514.209239c8.319847-13.823747 15.103723-27.818157 20.479625-42.239225l82.686484 100.264828 138.877454-29.908785a545.525999 545.525999 0 0 1-28.244816 64.297488 483.276473 483.276473 0 0 1-112.979262 143.357372 450.466408 450.466408 0 0 1-160.89305 89.897018c-1.151979 0.383993-2.38929 0.682654-3.541268 1.109313l-102.867448-86.995738 26.836842-118.397829 2.17596-0.895984c58.836255-25.599531 104.830078-65.236137 137.554811-120.957783v0.469325z m173.906145-468.087418c8.490511 11.647786 16.3837 23.892895 24.020893 36.436665a540.064765 540.064765 0 0 1 65.662797 170.834202c11.562455 60.158897 13.439754 120.701787 5.119906 181.41534a554.229839 554.229839 0 0 1-19.796971 85.417101l-138.877454 29.823453-83.198474-100.56349a250.448742 250.448742 0 0 0 2.559953-115.581881 246.224819 246.224819 0 0 0-62.036196-121.59777l149.714588-17.919672 55.721645-148.306614h1.109313zM57.09634 366.243952l89.598357-18.943653 52.735033 64.38282c-16.682361 46.249819-20.479625 94.291605-12.159777 144.21069 1.919965 14.250405 5.07724 27.98882 8.959836 41.343242l-94.718263-21.546272-67.838757 80.254529a481.185845 481.185845 0 0 1-12.074445-108.968669c0.127998-61.908198 11.519789-121.597771 34.431369-179.154049l0.682654-1.66397 0.383993 0.085332z m146.855974 253.179359a317.604844 317.604844 0 0 0 60.116231 98.814188c19.839636 22.996912 42.239226 41.599237 66.686778 56.276302l-93.864946 53.80168 5.119906 122.195093a460.876884 460.876884 0 0 1-85.331769-68.478745 466.679444 466.679444 0 0 1-99.838169-153.597184c-6.357217-15.999707-11.519789-31.999413-15.999707-47.99912l69.758721-81.875832 94.718264 21.716935-1.365309-0.853317z m147.282633 166.268951c20.180963 10.069149 41.769901 17.749008 64.766813 23.039578a275.664279 275.664279 0 0 0 150.567906-6.01589l-26.666178 117.629844 101.843467 86.185086a537.334149 537.334149 0 0 1-156.114472 17.10902 490.913667 490.913667 0 0 1-223.185241-61.225544l-5.07724-122.963079 93.864945-53.759015zM888.099772 186.19392L832.079465 334.927193l-154.194506 18.55966a129.27763 129.27763 0 0 0-13.951744-10.879801 332.196576 332.196576 0 0 0-170.834202-67.198768c-14.762396-1.237311-28.799472-1.237311-42.239225-1.23731l53.759014-137.640144L388.268935 4.053259c35.284686-3.83993 69.844053-4.437252 104.91541-3.83993 20.906283 0.639988 41.599237 2.17596 62.249525 4.821245 29.012801 3.797264 57.64161 10.197146 85.971758 17.919672 59.945568 17.066354 114.5579 44.116525 163.922328 82.345157a477.985904 477.985904 0 0 1 82.771816 80.894517z"
          fill="currentColor"></path>
</svg>