<svg class="icon" viewBox="0 0 1024 1024" version="1.1" xmlns="http://www.w3.org/2000/svg" width="1em"
     height="1em">
    <path d="M640 597.333333C526.08 597.333333 298.666667 654.08 298.666667 768L298.666667 853.333333 981.333333 853.333333 981.333333 768C981.333333 654.08 753.92 597.333333 640 597.333333M640 512C734.293333 512 810.666667 435.626667 810.666667 341.333333 810.666667 247.04 734.293333 170.666667 640 170.666667 545.706667 170.666667 469.333333 247.04 469.333333 341.333333 469.333333 435.626667 545.706667 512 640 512M213.333333 566.613333 317.866667 630.186667 290.133333 510.293333 384 430.08 260.693333 419.413333 213.333333 306.773333 165.12 419.413333 42.666667 430.08 135.68 510.293333 106.666667 630.186667 213.333333 566.613333Z" fill="currentColor">

    </path>
</svg>