<svg class="icon" viewBox="0 0 1024 1024" version="1.1" xmlns="http://www.w3.org/2000/svg"
     width="1em" height="1em">
    <path d="M393.088 584.736a32 32 0 1 0 45.376 45.248l210.944-212.608 149.568 82.624L1024 282.368l-179.488-99.232L751.84 0l-225.088 217.728 77.952 153.888-211.616 213.12z m395.488-163.648l-91.52-50.592 128.672-124.544 91.584 50.624-128.736 124.512z m-54.56-314.688l47.296 93.44-2.752 2.624-126.016 121.952-47.36-93.472 128.832-124.544z" fill="currentColor"></path>
    <path d="M415.776 479.2a32 32 0 0 0 32-32.032 32 32 0 0 0-32-32.064c-105.824 0-191.904 86.272-191.904 192.256 0 106.016 86.08 192.32 191.904 192.32s191.904-86.24 191.904-192.32a31.936 31.936 0 1 0-63.968 0 128.16 128.16 0 0 1-127.936 128.192 128.192 128.192 0 0 1 0-256.352z" fill="currentColor"></path>
    <path d="M799.552 575.328a32 32 0 0 0-32 32.064c0 194.368-157.824 352.544-351.808 352.544-193.984 0-351.776-158.08-351.776-352.544 0-194.368 157.824-352.544 351.808-352.544a32 32 0 0 0 0-64.096C186.496 190.784 0 377.696 0 607.36 0 837.088 186.496 1024 415.776 1024s415.776-186.912 415.776-416.64a32.064 32.064 0 0 0-32-32.032z" fill="currentColor"></path>
</svg>