<svg class="icon" viewBox="0 0 1024 1024" version="1.1" xmlns="http://www.w3.org/2000/svg"
     width="1em" height="1em">
    <path d="M864 953.4H232c-86.728 0-160-73.272-160-160v-664a24 24 0 0 1 24-24h656a24 24 0 0 1 24 24v184a24 24 0 1 1-48 0v-160H120v640c0 59.664 52.336 112 112 112h632a24 24 0 1 1 0 48z"
          fill="currentColor"></path>
    <path d="M864 953.4c-81.344 0-136-62.696-136-156v-484a24 24 0 0 1 24-24h216a24 24 0 0 1 24 24v484c0 96.224-49.048 156-128 156z m-88-616v460c0 52.208 23.12 108 88 108 69.608 0 80-67.664 80-108v-460H776zM442.632 384.344h-0.256a16 16 0 0 1-15.2-11.872l-36.344-136.336a16.008 16.008 0 0 1 11.336-19.584 15.984 15.984 0 0 1 19.584 11.336l21.832 81.928 24.808-82.16a16 16 0 0 1 15.32-11.376h0.32a16 16 0 0 1 15.168 11.992l20.904 80.792 24.568-81.408a16.048 16.048 0 0 1 19.944-10.696 16.008 16.008 0 0 1 10.696 19.944L534.24 372.968a16 16 0 0 1-15.32 11.376h-0.32a16.008 16.008 0 0 1-15.168-11.992l-20.904-80.792-24.568 81.408a16.024 16.024 0 0 1-15.328 11.376zM295.88 383.664C287.048 383.664 280 376.832 280 368V232c0-4.256 1.576-8.672 4.592-11.672 3-2.984 7.176-4.328 11.408-4.328 0.024 0 0 0 0 0h64c8.84 0.04 18.296 7.168 18.256 16a16 16 0 0 1-16 15.936h-0.064l-50.312-0.208v119.936a16 16 0 0 1-16 16z"
          fill="currentColor"></path>
    <path d="M362.256 312h-58.312a16 16 0 0 1 0-32h58.312a16 16 0 0 1 0 32zM362.256 384h-58.312a16 16 0 0 1 0-32h58.312a16 16 0 0 1 0 32zM637.232 384c-34.104 0-56.2-23.6-57.128-24.6a16 16 0 0 1 23.544-21.672c0.064 0.056 13.816 14.272 33.584 14.272C654.808 352 664 344.12 664 336.328c0-10.384-10.496-15.352-32.76-23.504-20.96-7.664-49.656-18.16-49.656-47.928 0-29.28 21.88-48.96 54.464-48.96 26.056 0 45.224 12.264 47.328 13.664a16 16 0 0 1-17.656 26.68c-0.432-0.264-13.32-8.352-29.672-8.352-14.904 0-22.464 5.704-22.464 16.96 0 6.888 11.344 11.552 28.64 17.872C664.92 291.072 696 302.44 696 336.328 696 360.016 675.816 384 637.232 384zM160 384a16 16 0 0 1-16-16V231.664a15.992 15.992 0 0 1 29.432-8.696L232 313.488V231.664a16 16 0 0 1 32 0v136c0 7.096-4.664 13.336-11.472 15.344a15.96 15.96 0 0 1-17.96-6.648L176 285.84V368a16 16 0 0 1-16 16zM392 616H160a16 16 0 0 1-16-16V432a16 16 0 0 1 16-16h232a16 16 0 0 1 16 16v168a16 16 0 0 1-16 16z m-216-32h200.12L376 448H176v136zM679.88 456h-224a16 16 0 0 1 0-32h224a16 16 0 0 1 0 32zM607.88 616h-152a16 16 0 0 1 0-32h152a16 16 0 0 1 0 32zM498.96 536h-43.08a16 16 0 0 1 0-32h43.08a16 16 0 0 1 0 32zM679.88 536h-112a16 16 0 0 1 0-32h112a16 16 0 0 1 0 32zM679.88 696h-512a16 16 0 0 1 0-32h512a16 16 0 0 1 0 32zM463.264 776H167.88a16 16 0 0 1 0-32h295.384a16 16 0 0 1 0 32zM679.88 776h-160a16 16 0 0 1 0-32h160a16 16 0 0 1 0 32z"
          fill="currentColor"></path>
</svg>